<svg xmlns="http://www.w3.org/2000/svg" viewBox="0 0 1200 720" font-family="Segoe UI, Arial, sans-serif" xmlns:c2pa="http://c2pa.org/manifest"><metadata><c2pa:manifest>AAAWgmp1bWIAAAAeanVtZGMycGEAEQAQgAAAqgA4m3EDYzJwYQAAABZcanVtYgAAAEdqdW1kYzJtYQARABCAAACqADibcQN1cm46YzJwYTo5OTg3NjhjMC01YTM5LTRhNjctYWVhYi01YjkxM2Y5MDk3NjEAAAADl2p1bWIAAAApanVtZGMyYXMAEQAQgAAAqgA4m3EDYzJwYS5hc3NlcnRpb25zAAAAALxqdW1iAAAARGp1bWRjYm9yABEAEIAAAKoAOJtxE2MycGEuaW5ncmVkaWVudC52MwAAAAAYYzJzaA9OvwoLpUbLfB2d+lY01GYAAABwY2JvcqNpZGM6Zm9ybWF0bWltYWdlL3N2Zyt4bWxqaW5zdGFuY2VJRHgseG1wOmlpZDpkNTk2ZmQwOC1mMjQ2LTQ4MWUtYTFmMC01YzFjMTQ2M2RhMDJscmVsYXRpb25zaGlwaHBhcmVudE9mAAAB4mp1bWIAAABBanVtZGNib3IAEQAQgAAAqgA4m3ETYzJwYS5hY3Rpb25zLnYyAAAAABhjMnNoueIRKRGbHPbLbFZGt70hNQAAAZljYm9yomdhY3Rpb25zgqJmYWN0aW9ua2MycGEub3BlbmVkanBhcmFtZXRlcnOha2luZ3JlZGllbnRzgaJjdXJseC1zZWxmI2p1bWJmPWMycGEuYXNzZXJ0aW9ucy9jMnBhLmluZ3JlZGllbnQudjNkaGFzaFggSMra/40wdxhFrx0sH9l5nVYpJYVtrn9iNSuLjYznjOukZmFjdGlvbngdY29tLmFudGhyb3BpYy5jbGF1ZGUucHJvdmlkZWRqcGFyYW1ldGVyc6F4H2NvbS5hbnRocm9waWMub3JpZ2luLWNvbmZpZGVuY2VndW5rbm93bmtkZXNjcmlwdGlvbnhmQ2xhdWRlIHByb3ZpZGVkIHRoaXMgZmlsZSBhdCB0aGUgcmVxdWVzdCBvZiBhIHVzZXIgYW5kIG1heSBoYXZlIGNyZWF0ZWQgb3IgbW9kaWZpZWQgdGhlIGZpbGUgY29udGVudHMubXNvZnR3YXJlQWdlbnShZG5hbWVmQ2xhdWRlcmFsbEFjdGlvbnNJbmNsdWRlZPUAAADIanVtYgAAAEBqdW1kY2JvcgARABCAAACqADibcRNjMnBhLmhhc2guZGF0YQAAAAAYYzJzaBxzQom+9xVp9NnGUORwF4UAAACAY2JvcqVjYWxnZnNoYTI1NmNwYWRNAAAAAAAAAAAAAAAAAGRoYXNoWCDv5uMUPW6V4Jdws1CuBYdN2v8VG9yjgNim3qoU/R793GRuYW1lbmp1bWJmIG1hbmlmZXN0amV4Y2x1c2lvbnOBomVzdGFydBioZmxlbmd0aBkeBAAAAj5qdW1iAAAAJ2p1bWRjMmNsABEAEIAAAKoAOJtxA2MycGEuY2xhaW0udjIAAAACD2Nib3KlY2FsZ2ZzaGEyNTZpc2lnbmF0dXJleE1zZWxmI2p1bWJmPS9jMnBhL3VybjpjMnBhOjk5ODc2OGMwLTVhMzktNGE2Ny1hZWFiLTViOTEzZjkwOTc2MS9jMnBhLnNpZ25hdHVyZWppbnN0YW5jZUlEeCx4bXA6aWlkOjhlODU1NDA3LTM5MzktNGRkNC05N2RiLWRhM2I0MjkyMzk4OHJjcmVhdGVkX2Fzc2VydGlvbnODomN1cmx4LXNlbGYjanVtYmY9YzJwYS5hc3NlcnRpb25zL2MycGEuaW5ncmVkaWVudC52M2RoYXNoWCBIytr/jTB3GEWvHSwf2XmdViklhW2uf2I1K4uNjOeM66JjdXJseCpzZWxmI2p1bWJmPWMycGEuYXNzZXJ0aW9ucy9jMnBhLmFjdGlvbnMudjJkaGFzaFggjpOs0S7zq82Ley29b5+uWE2hs9cp2aUGkEwvJN2+O8GiY3VybHgpc2VsZiNqdW1iZj1jMnBhLmFzc2VydGlvbnMvYzJwYS5oYXNoLmRhdGFkaGFzaFggchXo3HyiOqa/bnt2aYLqZwcwEjYtEai4uj+s3pK+nex0Y2xhaW1fZ2VuZXJhdG9yX2luZm+jZG5hbWVvQW50aHJvcGljIEZpbGVzZ3ZlcnNpb25lMS4wLjBrc3BlY1ZlcnNpb25lMi40LjAAABA4anVtYgAAAChqdW1kYzJjcwARABCAAACqADibcQNjMnBhLnNpZ25hdHVyZQAAABAIY2JvctKEWQISogEmGCFZAgowggIGMIIBjaADAgECAhRA5aAK7sI50L64g/oGQgU9Z1UTADAKBggqhkjOPQQDAzBJMRcwFQYDVQQKEw5BbnRocm9waWMsIFBCQzEuMCwGA1UEAxMlQW50aHJvcGljIENvbnRlbnQgQ3JlZGVudGlhbHMgUm9vdCBDQTAeFw0yNjA4MDcxODQzNTZaFw0yODA4MDYxOTQzNTZaMEQxFzAVBgNVBAoTDkFudGhyb3BpYywgUEJDMSkwJwYDVQQDEyBBbnRocm9waWMgQ2xhdWRlIENvbnRlbnQgU2lnbmluZzBZMBMGByqGSM49AgEGCCqGSM49AwEHA0IABJh6CmvLUBgFFNU0vUKlOVtE6djd17L5SuwX0LemFisBM3dkd/3cyjxFA3Qo5S46fX0/ihY0VZ7mfb9KF703t5OjWDBWMA4GA1UdDwEB/wQEAwIHgDAVBgNVHSUEDjAMBgorBgEEAYPoXgIBMAwGA1UdEwEB/wQCMAAwHwYDVR0jBBgwFoAUzlHiBIFOZFsj+OPEz5o+nMHXXMIwCgYIKoZIzj0EAwMDZwAwZAIwMXMdFJ4BetLLVY7ORuE9noqbbAZOZn/aArXyTwFAZfKrPzxF2vPoJNf1+UCdg1XGAjBwX1zd9WGqYkqmL5SFqw1QySjr1zJfpJM9+1rdDwSPLMOPOjKuiXjoU/pUUeG9RwmhY3BhZFkNngAAAAAAAAAAAAAAAAAAAAAAAAAAAAAAAAAAAAAAAAAAAAAAAAAAAAAAAAAAAAAAAAAAAAAAAAAAAAAAAAAAAAAAAAAAAAAAAAAAAAAAAAAAAAAAAAAAAAAAAAAAAAAAAAAAAAAAAAAAAAAAAAAAAAAAAAAAAAAAAAAAAAAAAAAAAAAAAAAAAAAAAAAAAAAAAAAAAAAAAAAAAAAAAAAAAAAAAAAAAAAAAAAAAAAAAAAAAAAAAAAAAAAAAAAAAAAAAAAAAAAAAAAAAAAAAAAAAAAAAAAAAAAAAAAAAAAAAAAAAAAAAAAAAAAAAAAAAAAAAAAAAAAAAAAAAAAAAAAAAAAAAAAAAAAAAAAAAAAAAAAAAAAAAAAAAAAAAAAAAAAAAAAAAAAAAAAAAAAAAAAAAAAAAAAAAAAAAAAAAAAAAAAAAAAAAAAAAAAAAAAAAAAAAAAAAAAAAAAAAAAAAAAAAAAAAAAAAAAAAAAAAAAAAAAAAAAAAAAAAAAAAAAAAAAAAAAAAAAAAAAAAAAAAAAAAAAAAAAAAAAAAAAAAAAAAAAAAAAAAAAAAAAAAAAAAAAAAAAAAAAAAAAAAAAAAAAAAAAAAAAAAAAAAAAAAAAAAAAAAAAAAAAAAAAAAAAAAAAAAAAAAAAAAAAAAAAAAAAAAAAAAAAAAAAAAAAAAAAAAAAAAAAAAAAAAAAAAAAAAAAAAAAAAAAAAAAAAAAAAAAAAAAAAAAAAAAAAAAAAAAAAAAAAAAAAAAAAAAAAAAAAAAAAAAAAAAAAAAAAAAAAAAAAAAAAAAAAAAAAAAAAAAAAAAAAAAAAAAAAAAAAAAAAAAAAAAAAAAAAAAAAAAAAAAAAAAAAAAAAAAAAAAAAAAAAAAAAAAAAAAAAAAAAAAAAAAAAAAAAAAAAAAAAAAAAAAAAAAAAAAAAAAAAAAAAAAAAAAAAAAAAAAAAAAAAAAAAAAAAAAAAAAAAAAAAAAAAAAAAAAAAAAAAAAAAAAAAAAAAAAAAAAAAAAAAAAAAAAAAAAAAAAAAAAAAAAAAAAAAAAAAAAAAAAAAAAAAAAAAAAAAAAAAAAAAAAAAAAAAAAAAAAAAAAAAAAAAAAAAAAAAAAAAAAAAAAAAAAAAAAAAAAAAAAAAAAAAAAAAAAAAAAAAAAAAAAAAAAAAAAAAAAAAAAAAAAAAAAAAAAAAAAAAAAAAAAAAAAAAAAAAAAAAAAAAAAAAAAAAAAAAAAAAAAAAAAAAAAAAAAAAAAAAAAAAAAAAAAAAAAAAAAAAAAAAAAAAAAAAAAAAAAAAAAAAAAAAAAAAAAAAAAAAAAAAAAAAAAAAAAAAAAAAAAAAAAAAAAAAAAAAAAAAAAAAAAAAAAAAAAAAAAAAAAAAAAAAAAAAAAAAAAAAAAAAAAAAAAAAAAAAAAAAAAAAAAAAAAAAAAAAAAAAAAAAAAAAAAAAAAAAAAAAAAAAAAAAAAAAAAAAAAAAAAAAAAAAAAAAAAAAAAAAAAAAAAAAAAAAAAAAAAAAAAAAAAAAAAAAAAAAAAAAAAAAAAAAAAAAAAAAAAAAAAAAAAAAAAAAAAAAAAAAAAAAAAAAAAAAAAAAAAAAAAAAAAAAAAAAAAAAAAAAAAAAAAAAAAAAAAAAAAAAAAAAAAAAAAAAAAAAAAAAAAAAAAAAAAAAAAAAAAAAAAAAAAAAAAAAAAAAAAAAAAAAAAAAAAAAAAAAAAAAAAAAAAAAAAAAAAAAAAAAAAAAAAAAAAAAAAAAAAAAAAAAAAAAAAAAAAAAAAAAAAAAAAAAAAAAAAAAAAAAAAAAAAAAAAAAAAAAAAAAAAAAAAAAAAAAAAAAAAAAAAAAAAAAAAAAAAAAAAAAAAAAAAAAAAAAAAAAAAAAAAAAAAAAAAAAAAAAAAAAAAAAAAAAAAAAAAAAAAAAAAAAAAAAAAAAAAAAAAAAAAAAAAAAAAAAAAAAAAAAAAAAAAAAAAAAAAAAAAAAAAAAAAAAAAAAAAAAAAAAAAAAAAAAAAAAAAAAAAAAAAAAAAAAAAAAAAAAAAAAAAAAAAAAAAAAAAAAAAAAAAAAAAAAAAAAAAAAAAAAAAAAAAAAAAAAAAAAAAAAAAAAAAAAAAAAAAAAAAAAAAAAAAAAAAAAAAAAAAAAAAAAAAAAAAAAAAAAAAAAAAAAAAAAAAAAAAAAAAAAAAAAAAAAAAAAAAAAAAAAAAAAAAAAAAAAAAAAAAAAAAAAAAAAAAAAAAAAAAAAAAAAAAAAAAAAAAAAAAAAAAAAAAAAAAAAAAAAAAAAAAAAAAAAAAAAAAAAAAAAAAAAAAAAAAAAAAAAAAAAAAAAAAAAAAAAAAAAAAAAAAAAAAAAAAAAAAAAAAAAAAAAAAAAAAAAAAAAAAAAAAAAAAAAAAAAAAAAAAAAAAAAAAAAAAAAAAAAAAAAAAAAAAAAAAAAAAAAAAAAAAAAAAAAAAAAAAAAAAAAAAAAAAAAAAAAAAAAAAAAAAAAAAAAAAAAAAAAAAAAAAAAAAAAAAAAAAAAAAAAAAAAAAAAAAAAAAAAAAAAAAAAAAAAAAAAAAAAAAAAAAAAAAAAAAAAAAAAAAAAAAAAAAAAAAAAAAAAAAAAAAAAAAAAAAAAAAAAAAAAAAAAAAAAAAAAAAAAAAAAAAAAAAAAAAAAAAAAAAAAAAAAAAAAAAAAAAAAAAAAAAAAAAAAAAAAAAAAAAAAAAAAAAAAAAAAAAAAAAAAAAAAAAAAAAAAAAAAAAAAAAAAAAAAAAAAAAAAAAAAAAAAAAAAAAAAAAAAAAAAAAAAAAAAAAAAAAAAAAAAAAAAAAAAAAAAAAAAAAAAAAAAAAAAAAAAAAAAAAAAAAAAAAAAAAAAAAAAAAAAAAAAAAAAAAAAAAAAAAAAAAAAAAAAAAAAAAAAAAAAAAAAAAAAAAAAAAAAAAAAAAAAAAAAAAAAAAAAAAAAAAAAAAAAAAAAAAAAAAAAAAAAAAAAAAAAAAAAAAAAAAAAAAAAAAAAAAAAAAAAAAAAAAAAAAAAAAAAAAAAAAAAAAAAAAAAAAAAAAAAAAAAAAAAAAAAAAAAAAAAAAAAAAAAAAAAAAAAAAAAAAAAAAAAAAAAAAAAAAAAAAAAAAAAAAAAAAAAAAAAAAAAAAAAAAAAAAAAAAAAAAAAAAAAAAAAAAAAAAAAAAAAAAAAAAAAAAAAAAAAAAAAAAAAAAAAAAAAAAAAAAAAAAAAAAAAAAAAAAAAAAAAAAAAAAAAAAAAAAAAAAAAAAAAAAAAAAAAAAAAAAAAAAAAAAAAAAAAAAAAAAAAAAAAAAAAAAAAAAAAAAAAAAAAAAAAAAAAAAAAAAAAAAAAAAAAAAAAAAAAAAAAAAAAAAAAAAAAAAAAAAAAAAAAAAAAAAAAAAAAAAAAAAAAAAAAAAAAAAAAAAAAAAAAAAAAAAAAAAAAAAAAAAAAAAAAAAAAAAAAAAAAAAAAAAAAAAAAAAAAAAAAAAAAAAAAAAAAAAAAAAAAAAAAAAAAAAAAAAAAAAAAAAAAAAAAAAAAAAAAAAAAAAAAAAAAAAAAAAAAAAAAAAAAAAAAAAAAAAAAAAAAAAAAAAAAAAAAAAAAAAAAAAAAAAAAAAAAAAAAAAAAAAAAAAAAAAAAAAAAAAAAAAAAAAAAAAAAAAAAAAAAAAAAAAAAAAAAAAAAAAAAAAAAAAAAAAAAAAAAAAAAAAAAAAAAAAAAAAAAAAAAAAAAAAAAAAAAAAAAAAAAAAAAAAAAAAAAAAAAAAAAAAAAAAAAAAAAAAAAAAAAAAAAAAAAAAAAAAAAAAAAAAAAAAAAAAAAAAAAAAAAAAAAAAAAAAAAAAAAAAAAAAAAAAAAAAAAAAAAAAAAAAAAAAAAAAAAAAAAAAAAAAAAAAAAAAAAAAAAAAAAAAAAAAAAAAAAAAAAAAAAAAAAAAAAAAAAAAAAAAAAAAAAAAAAAAAAAAAAAAAAAAAAAAAAAAAAAAAAAAAAAAAAAAAAAAAAAAAAAAAAAAAAAAAAAAAAAAAAAAAAAAAAAAAAAAAAAAAAAAAAAAAAAAAAAAAAAAAAAAAAAAAAAAAAAAAAAAAAAAAAAAAAAAAAAAAAAAAAAAAAAAAAAAAAAAAAAAAAAAAAAAAAAAAAAAAAAAAAAAAAAAAAAAAAAAAAAAAAAAAAAAAAAAAAAAAAAAAAAAAAAAAAAAAAAAAAAAAAAAAAAAAAAAAAAAAAAAAAAAAAAAAAAAAAAAAAAAAAAAAAAAAAAAAAAAAAAAAAAAAAAAAAAAAAAAAAAAAAAAAAAAAAAAAAAAAAAAAAAAAAAAAAAAAAAAAAAAAAAAAAAAAAAAAAAAAAAAAAAAAAAAAAAAAAAAAAAAAAAAAAAAAAAAAAAAAAAAAAAAAAAAAAAAAAAAAAAAAAAAAAAAAAAAAAAAAAAAAAAAAAAAAAAAAAAAAAAAAAAAAAAAAAAAAAAAAAAAAAAAAAAAAAAAAAAAAAAAAAAAAAAAAAAAAAAAAAAAAAAAAAAAAAAAAAAAAAAAAAAAAAAAAAAAAAAAAAAAAAAAAAAAAAAAAAAAAAAAAAAAAAAAAAAAAAAAAAAAAAAAAAAAAAAAAAAAAAAAAAAAAAAAAAAAAAAAAAAAAAAAAAAAAAAAAAAAAAAAAAAAAAAAAAAAAAAAAAAAAAAAAAAAAAAAAAAAAAAAAAPZYQOhKhVau2PsjSXvfUACOZaQcSPOONkJmhMy276aNnu6hN9uLqFMsdPKnTPXaxm0k4APpcnxWdNh/mPT7FFRYGkA=</c2pa:manifest></metadata>
<rect width="1200" height="720" fill="#0b1120"/>
<defs><filter id="glow" x="-50%" y="-50%" width="200%" height="200%">
<feGaussianBlur stdDeviation="4" result="blur"/><feMerge><feMergeNode in="blur"/><feMergeNode in="SourceGraphic"/></feMerge>
</filter></defs>
<text x="28" y="42" font-size="26" font-weight="700" fill="#e2e8f0">⚙ Awesome Periodic Table</text>
<rect x="28" y="62" width="64" height="36" rx="8" fill="#1e293b" stroke="#334155"/>
<text x="42" y="86" font-size="16" fill="#f1f5f9">📕</text>
<text x="62" y="85" font-size="12" font-weight="600" fill="#fbbf24">3/12</text>
<rect x="100" y="62" width="430" height="36" rx="8" fill="#1e293b" stroke="#38bdf8" stroke-width="1.5"/>
<text x="114" y="86" font-size="14" fill="#f1f5f9">transition, density above 10</text>
<text x="544" y="86" font-size="13" fill="#94a3b8">21 / 118</text>
<rect x="700" y="62" width="472" height="36" rx="8" fill="none"/>
<text x="700" y="86" font-size="14" fill="#e2e8f0">25 °C</text>
<rect x="770" y="77" width="6" height="6" rx="3" fill="#94a3b8"/>
<rect x="790" y="77" width="300" height="6" rx="3" fill="#334155"/>
<circle cx="880" cy="80" r="8" fill="#38bdf8"/>
<rect x="1100" y="77" width="6" height="6" rx="3" fill="#94a3b8"/>
<rect x="28" y="130" width="47" height="47" rx="6" fill="#f87171" opacity="1.0" stroke="none" stroke-width="0"/>
<rect x="79" y="130" width="47" height="47" rx="6" fill="#fb923c" opacity="1.0" stroke="#fbbf24" stroke-width="2" filter="url(#glow)"/>
<rect x="130" y="130" width="47" height="47" rx="6" fill="#60a5fa" opacity="1.0" stroke="none" stroke-width="0"/>
<rect x="181" y="130" width="47" height="47" rx="6" fill="#4ade80" opacity="0.28" stroke="none" stroke-width="0"/>
<rect x="232" y="130" width="47" height="47" rx="6" fill="#a78bfa" opacity="1.0" stroke="#fbbf24" stroke-width="2" filter="url(#glow)"/>
<rect x="334" y="130" width="47" height="47" rx="6" fill="#fbbf24" opacity="0.28" stroke="none" stroke-width="0"/>
<rect x="385" y="130" width="47" height="47" rx="6" fill="#f472b6" opacity="1.0" stroke="none" stroke-width="0"/>
<rect x="436" y="130" width="47" height="47" rx="6" fill="#c084fc" opacity="0.28" stroke="none" stroke-width="0"/>
<rect x="487" y="130" width="47" height="47" rx="6" fill="#e879f9" opacity="1.0" stroke="none" stroke-width="0"/>
<rect x="538" y="130" width="47" height="47" rx="6" fill="#f87171" opacity="1.0" stroke="none" stroke-width="0"/>
<rect x="589" y="130" width="47" height="47" rx="6" fill="#fb923c" opacity="1.0" stroke="none" stroke-width="0"/>
<rect x="640" y="130" width="47" height="47" rx="6" fill="#60a5fa" opacity="0.28" stroke="none" stroke-width="0"/>
<rect x="691" y="130" width="47" height="47" rx="6" fill="#4ade80" opacity="1.0" stroke="none" stroke-width="0"/>
<rect x="742" y="130" width="47" height="47" rx="6" fill="#a78bfa" opacity="0.28" stroke="none" stroke-width="0"/>
<rect x="793" y="130" width="47" height="47" rx="6" fill="#34d399" opacity="0.28" stroke="none" stroke-width="0"/>
<rect x="844" y="130" width="47" height="47" rx="6" fill="#fbbf24" opacity="1.0" stroke="none" stroke-width="0"/>
<rect x="895" y="130" width="47" height="47" rx="6" fill="#f472b6" opacity="1.0" stroke="none" stroke-width="0"/>
<rect x="28" y="181" width="47" height="47" rx="6" fill="#c084fc" opacity="1.0" stroke="none" stroke-width="0"/>
<rect x="79" y="181" width="47" height="47" rx="6" fill="#e879f9" opacity="1.0" stroke="#fbbf24" stroke-width="2" filter="url(#glow)"/>
<rect x="130" y="181" width="47" height="47" rx="6" fill="#f87171" opacity="0.28" stroke="none" stroke-width="0"/>
<rect x="232" y="181" width="47" height="47" rx="6" fill="#60a5fa" opacity="1.0" stroke="none" stroke-width="0"/>
<rect x="283" y="181" width="47" height="47" rx="6" fill="#4ade80" opacity="1.0" stroke="none" stroke-width="0"/>
<rect x="334" y="181" width="47" height="47" rx="6" fill="#a78bfa" opacity="1.0" stroke="none" stroke-width="0"/>
<rect x="385" y="181" width="47" height="47" rx="6" fill="#34d399" opacity="1.0" stroke="none" stroke-width="0"/>
<rect x="436" y="181" width="47" height="47" rx="6" fill="#fbbf24" opacity="1.0" stroke="none" stroke-width="0"/>
<rect x="487" y="181" width="47" height="47" rx="6" fill="#f472b6" opacity="1.0" stroke="none" stroke-width="0"/>
<rect x="538" y="181" width="47" height="47" rx="6" fill="#c084fc" opacity="1.0" stroke="none" stroke-width="0"/>
<rect x="589" y="181" width="47" height="47" rx="6" fill="#e879f9" opacity="0.28" stroke="none" stroke-width="0"/>
<rect x="640" y="181" width="47" height="47" rx="6" fill="#f87171" opacity="1.0" stroke="none" stroke-width="0"/>
<rect x="691" y="181" width="47" height="47" rx="6" fill="#fb923c" opacity="0.28" stroke="none" stroke-width="0"/>
<rect x="793" y="181" width="47" height="47" rx="6" fill="#4ade80" opacity="1.0" stroke="none" stroke-width="0"/>
<rect x="844" y="181" width="47" height="47" rx="6" fill="#a78bfa" opacity="1.0" stroke="none" stroke-width="0"/>
<rect x="28" y="232" width="47" height="47" rx="6" fill="#fbbf24" opacity="1.0" stroke="none" stroke-width="0"/>
<rect x="79" y="232" width="47" height="47" rx="6" fill="#f472b6" opacity="1.0" stroke="none" stroke-width="0"/>
<rect x="130" y="232" width="47" height="47" rx="6" fill="#c084fc" opacity="1.0" stroke="none" stroke-width="0"/>
<rect x="181" y="232" width="47" height="47" rx="6" fill="#e879f9" opacity="1.0" stroke="#fbbf24" stroke-width="2" filter="url(#glow)"/>
<rect x="232" y="232" width="47" height="47" rx="6" fill="#f87171" opacity="1.0" stroke="none" stroke-width="0"/>
<rect x="283" y="232" width="47" height="47" rx="6" fill="#fb923c" opacity="1.0" stroke="none" stroke-width="0"/>
<rect x="334" y="232" width="47" height="47" rx="6" fill="#60a5fa" opacity="1.0" stroke="none" stroke-width="0"/>
<rect x="385" y="232" width="47" height="47" rx="6" fill="#4ade80" opacity="1.0" stroke="#fbbf24" stroke-width="2" filter="url(#glow)"/>
<rect x="436" y="232" width="47" height="47" rx="6" fill="#a78bfa" opacity="1.0" stroke="none" stroke-width="0"/>
<rect x="487" y="232" width="47" height="47" rx="6" fill="#34d399" opacity="0.28" stroke="none" stroke-width="0"/>
<rect x="538" y="232" width="47" height="47" rx="6" fill="#fbbf24" opacity="0.28" stroke="none" stroke-width="0"/>
<rect x="589" y="232" width="47" height="47" rx="6" fill="#f472b6" opacity="1.0" stroke="none" stroke-width="0"/>
<rect x="640" y="232" width="47" height="47" rx="6" fill="#c084fc" opacity="1.0" stroke="none" stroke-width="0"/>
<rect x="691" y="232" width="47" height="47" rx="6" fill="#e879f9" opacity="1.0" stroke="#fbbf24" stroke-width="2" filter="url(#glow)"/>
<rect x="742" y="232" width="47" height="47" rx="6" fill="#f87171" opacity="1.0" stroke="none" stroke-width="0"/>
<rect x="793" y="232" width="47" height="47" rx="6" fill="#fb923c" opacity="1.0" stroke="none" stroke-width="0"/>
<rect x="844" y="232" width="47" height="47" rx="6" fill="#60a5fa" opacity="1.0" stroke="none" stroke-width="0"/>
<rect x="895" y="232" width="47" height="47" rx="6" fill="#4ade80" opacity="1.0" stroke="none" stroke-width="0"/>
<rect x="28" y="283" width="47" height="47" rx="6" fill="#a78bfa" opacity="1.0" stroke="none" stroke-width="0"/>
<rect x="79" y="283" width="47" height="47" rx="6" fill="#34d399" opacity="0.28" stroke="none" stroke-width="0"/>
<rect x="130" y="283" width="47" height="47" rx="6" fill="#fbbf24" opacity="0.28" stroke="none" stroke-width="0"/>
<rect x="181" y="283" width="47" height="47" rx="6" fill="#f472b6" opacity="1.0" stroke="none" stroke-width="0"/>
<rect x="232" y="283" width="47" height="47" rx="6" fill="#c084fc" opacity="1.0" stroke="none" stroke-width="0"/>
<rect x="283" y="283" width="47" height="47" rx="6" fill="#e879f9" opacity="1.0" stroke="#fbbf24" stroke-width="2" filter="url(#glow)"/>
<rect x="334" y="283" width="47" height="47" rx="6" fill="#f87171" opacity="1.0" stroke="none" stroke-width="0"/>
<rect x="385" y="283" width="47" height="47" rx="6" fill="#fb923c" opacity="1.0" stroke="none" stroke-width="0"/>
<rect x="436" y="283" width="47" height="47" rx="6" fill="#60a5fa" opacity="1.0" stroke="none" stroke-width="0"/>
<rect x="487" y="283" width="47" height="47" rx="6" fill="#4ade80" opacity="1.0" stroke="none" stroke-width="0"/>
<rect x="538" y="283" width="47" height="47" rx="6" fill="#a78bfa" opacity="0.28" stroke="none" stroke-width="0"/>
<rect x="589" y="283" width="47" height="47" rx="6" fill="#34d399" opacity="1.0" stroke="none" stroke-width="0"/>
<rect x="640" y="283" width="47" height="47" rx="6" fill="#fbbf24" opacity="1.0" stroke="none" stroke-width="0"/>
<rect x="691" y="283" width="47" height="47" rx="6" fill="#f472b6" opacity="1.0" stroke="none" stroke-width="0"/>
<rect x="742" y="283" width="47" height="47" rx="6" fill="#c084fc" opacity="0.28" stroke="none" stroke-width="0"/>
<rect x="793" y="283" width="47" height="47" rx="6" fill="#e879f9" opacity="1.0" stroke="#fbbf24" stroke-width="2" filter="url(#glow)"/>
<rect x="844" y="283" width="47" height="47" rx="6" fill="#f87171" opacity="0.28" stroke="none" stroke-width="0"/>
<rect x="28" y="334" width="47" height="47" rx="6" fill="#60a5fa" opacity="1.0" stroke="#fbbf24" stroke-width="2" filter="url(#glow)"/>
<rect x="79" y="334" width="47" height="47" rx="6" fill="#4ade80" opacity="0.28" stroke="none" stroke-width="0"/>
<rect x="130" y="334" width="47" height="47" rx="6" fill="#a78bfa" opacity="0.28" stroke="none" stroke-width="0"/>
<rect x="181" y="334" width="47" height="47" rx="6" fill="#34d399" opacity="0.28" stroke="none" stroke-width="0"/>
<rect x="232" y="334" width="47" height="47" rx="6" fill="#fbbf24" opacity="1.0" stroke="#fbbf24" stroke-width="2" filter="url(#glow)"/>
<rect x="283" y="334" width="47" height="47" rx="6" fill="#f472b6" opacity="1.0" stroke="none" stroke-width="0"/>
<rect x="334" y="334" width="47" height="47" rx="6" fill="#c084fc" opacity="0.28" stroke="none" stroke-width="0"/>
<rect x="385" y="334" width="47" height="47" rx="6" fill="#e879f9" opacity="1.0" stroke="none" stroke-width="0"/>
<rect x="436" y="334" width="47" height="47" rx="6" fill="#f87171" opacity="1.0" stroke="none" stroke-width="0"/>
<rect x="487" y="334" width="47" height="47" rx="6" fill="#fb923c" opacity="1.0" stroke="none" stroke-width="0"/>
<rect x="589" y="334" width="47" height="47" rx="6" fill="#4ade80" opacity="0.28" stroke="none" stroke-width="0"/>
<rect x="640" y="334" width="47" height="47" rx="6" fill="#a78bfa" opacity="0.28" stroke="none" stroke-width="0"/>
<rect x="691" y="334" width="47" height="47" rx="6" fill="#34d399" opacity="1.0" stroke="none" stroke-width="0"/>
<rect x="742" y="334" width="47" height="47" rx="6" fill="#fbbf24" opacity="1.0" stroke="none" stroke-width="0"/>
<rect x="793" y="334" width="47" height="47" rx="6" fill="#f472b6" opacity="0.28" stroke="none" stroke-width="0"/>
<rect x="844" y="334" width="47" height="47" rx="6" fill="#c084fc" opacity="1.0" stroke="none" stroke-width="0"/>
<rect x="895" y="334" width="47" height="47" rx="6" fill="#e879f9" opacity="0.28" stroke="none" stroke-width="0"/>
<rect x="28" y="385" width="47" height="47" rx="6" fill="#f87171" opacity="1.0" stroke="#fbbf24" stroke-width="2" filter="url(#glow)"/>
<rect x="79" y="385" width="47" height="47" rx="6" fill="#fb923c" opacity="1.0" stroke="none" stroke-width="0"/>
<rect x="130" y="385" width="47" height="47" rx="6" fill="#60a5fa" opacity="1.0" stroke="none" stroke-width="0"/>
<rect x="181" y="385" width="47" height="47" rx="6" fill="#4ade80" opacity="1.0" stroke="none" stroke-width="0"/>
<rect x="232" y="385" width="47" height="47" rx="6" fill="#a78bfa" opacity="0.28" stroke="none" stroke-width="0"/>
<rect x="283" y="385" width="47" height="47" rx="6" fill="#34d399" opacity="1.0" stroke="none" stroke-width="0"/>
<rect x="334" y="385" width="47" height="47" rx="6" fill="#fbbf24" opacity="1.0" stroke="none" stroke-width="0"/>
<rect x="385" y="385" width="47" height="47" rx="6" fill="#f472b6" opacity="1.0" stroke="none" stroke-width="0"/>
<rect x="487" y="385" width="47" height="47" rx="6" fill="#e879f9" opacity="1.0" stroke="none" stroke-width="0"/>
<rect x="538" y="385" width="47" height="47" rx="6" fill="#f87171" opacity="1.0" stroke="none" stroke-width="0"/>
<rect x="640" y="385" width="47" height="47" rx="6" fill="#60a5fa" opacity="0.28" stroke="none" stroke-width="0"/>
<rect x="691" y="385" width="47" height="47" rx="6" fill="#4ade80" opacity="0.28" stroke="none" stroke-width="0"/>
<rect x="742" y="385" width="47" height="47" rx="6" fill="#a78bfa" opacity="1.0" stroke="none" stroke-width="0"/>
<rect x="844" y="385" width="47" height="47" rx="6" fill="#fbbf24" opacity="1.0" stroke="none" stroke-width="0"/>
<rect x="895" y="385" width="47" height="47" rx="6" fill="#f472b6" opacity="1.0" stroke="none" stroke-width="0"/>
<rect x="28" y="436" width="47" height="47" rx="6" fill="#c084fc" opacity="1.0" stroke="none" stroke-width="0"/>
<rect x="130" y="436" width="47" height="47" rx="6" fill="#f87171" opacity="1.0" stroke="none" stroke-width="0"/>
<rect x="232" y="436" width="47" height="47" rx="6" fill="#60a5fa" opacity="1.0" stroke="none" stroke-width="0"/>
<rect x="283" y="436" width="47" height="47" rx="6" fill="#4ade80" opacity="1.0" stroke="#fbbf24" stroke-width="2" filter="url(#glow)"/>
<rect x="385" y="436" width="47" height="47" rx="6" fill="#34d399" opacity="1.0" stroke="none" stroke-width="0"/>
<rect x="436" y="436" width="47" height="47" rx="6" fill="#fbbf24" opacity="1.0" stroke="none" stroke-width="0"/>
<rect x="487" y="436" width="47" height="47" rx="6" fill="#f472b6" opacity="1.0" stroke="none" stroke-width="0"/>
<rect x="538" y="436" width="47" height="47" rx="6" fill="#c084fc" opacity="1.0" stroke="none" stroke-width="0"/>
<rect x="640" y="436" width="47" height="47" rx="6" fill="#f87171" opacity="1.0" stroke="none" stroke-width="0"/>
<rect x="691" y="436" width="47" height="47" rx="6" fill="#fb923c" opacity="0.28" stroke="none" stroke-width="0"/>
<rect x="742" y="436" width="47" height="47" rx="6" fill="#60a5fa" opacity="0.28" stroke="none" stroke-width="0"/>
<rect x="793" y="436" width="47" height="47" rx="6" fill="#4ade80" opacity="0.28" stroke="none" stroke-width="0"/>
<rect x="895" y="436" width="47" height="47" rx="6" fill="#34d399" opacity="0.28" stroke="none" stroke-width="0"/>
<rect x="940" y="130" width="232" height="460" rx="10" fill="#1e293b" stroke="#334155"/>
<text x="956" y="164" font-size="20" font-weight="700" fill="#e2e8f0">Ag — Silver</text>
<text x="956" y="186" font-size="12" fill="#94a3b8">Argentum · Z=47</text>
<rect x="948" y="202" width="216" height="28" fill="#1e293b"/>
<text x="956" y="220" font-size="12" fill="#94a3b8">Mass</text>
<text x="1156" y="220" font-size="12" fill="#f1f5f9" text-anchor="end">107.87 u</text>
<rect x="948" y="232" width="216" height="28" fill="#121c2b"/>
<text x="956" y="250" font-size="12" fill="#94a3b8">Density</text>
<text x="1156" y="250" font-size="12" fill="#f1f5f9" text-anchor="end">10.49 g/cm³</text>
<rect x="948" y="262" width="216" height="28" fill="#1e293b"/>
<text x="956" y="280" font-size="12" fill="#94a3b8">Melts</text>
<text x="1156" y="280" font-size="12" fill="#f1f5f9" text-anchor="end">961.8 °C</text>
<rect x="948" y="292" width="216" height="28" fill="#121c2b"/>
<text x="956" y="310" font-size="12" fill="#94a3b8">Boils</text>
<text x="1156" y="310" font-size="12" fill="#f1f5f9" text-anchor="end">2162 °C</text>
<rect x="948" y="322" width="216" height="28" fill="#1e293b"/>
<text x="956" y="340" font-size="12" fill="#94a3b8">Category</text>
<text x="1156" y="340" font-size="12" fill="#f1f5f9" text-anchor="end">Transition metal</text>
<rect x="948" y="352" width="216" height="28" fill="#121c2b"/>
<text x="956" y="370" font-size="12" fill="#94a3b8">Conductivity</text>
<text x="1156" y="370" font-size="12" fill="#f1f5f9" text-anchor="end">63.0 MS/m</text>
<rect x="948" y="382" width="216" height="28" fill="#1e293b"/>
<text x="956" y="400" font-size="12" fill="#94a3b8">Toxicity</text>
<text x="1156" y="400" font-size="12" fill="#f1f5f9" text-anchor="end">Low</text>
<rect x="948" y="412" width="216" height="28" fill="#121c2b"/>
<text x="956" y="430" font-size="12" fill="#94a3b8">Discovered</text>
<text x="1156" y="430" font-size="12" fill="#f1f5f9" text-anchor="end">Ancient</text>
</svg>
